# xmcd
#
# Track frame offsets:
#	150
#	12215
#	26012
#	38976
#	52957
#	67462
#	79162
#	91040
#	102412
#	113823
#	128017
#	139972
#	150507
#	169509
#
# Disc length: 2458 seconds
#
# Revision: 0
# Processed by: cddbd v1.5.2PL0 Copyright (c) Steve Scherf et al.
# Submitted via: EasyCDDAExtractor 10.5.1.1
#
DISCID=b209980e
DTITLE=Freddy King - Let's Hide Away And Dance Away
DYEAR=1900
DGENRE=Blues
TTITLE0=Hide Away
TTITLE1=Butterscotch
TTITLE2=Sen-Sa-Shun
TTITLE3=Side Tracked
TTITLE4=The Stumble
TTITLE5=Wash Out
TTITLE6=San-Ho-Zay
TTITLE7=Just Pickin'
TTITLE8=Heads Up
TTITLE9=In the Open
TTITLE10=Out Front
TTITLE11=Swooshy
TTITLE12=(Let Your Love) Watch Over Me with lula reed
TTITLE13=It's Easy Child with lula reed
EXTD=
EXTT0=
EXTT1=
EXTT2=
EXTT3=
EXTT4=
EXTT5=
EXTT6=
EXTT7=
EXTT8=
EXTT9=
EXTT10=
EXTT11=
EXTT12=
EXTT13=
PLAYORDER=
